<svg viewBox="0 0 464.834 464.834"><path d="m350.36 225.5c-7.813-66.13-64.06-117.43-132.3-117.43s-124.48 51.3-132.29 117.43c-47.37 0-85.77 38.4-85.77 85.76 0 47.37 38.4 85.76 85.76 85.76h264.6c47.37 0 85.76-38.4 85.76-85.76 0-47.37-38.4-85.76-85.77-85.76"/><path d="m432.34 175.69c-2.332-14.1-7.907-27.1-15.908-38.26l23.02-23.02-21.21-21.21-23 23c-11.156-8-24.18-13.544-38.28-15.876v-32.506h-30v32.529c-6.31 1.056-12.493 2.745-18.433 5.072 32.21 21.457 56.49 54.11 67.02 92.81 19.05 4.206 36.695 13.194 51.51 26.34 2.413-6.074 4.184-12.401 5.259-18.882h32.51v-30h-32.489"/></svg>