<svg viewBox="0 0 455 455"><path d="m350.36 236.02c-7.814-66.13-64.06-117.43-132.3-117.43s-124.48 51.3-132.29 117.43c-47.37 0-85.77 38.4-85.77 85.76s38.4 85.76 85.76 85.76h264.6c47.37 0 85.76-38.4 85.76-85.76s-38.4-85.76-85.77-85.76"/><path d="m391.02 135.06c-5.829-49.34-47.791-87.61-98.69-87.61-33.18 0-62.56 16.272-80.61 41.26 2.108-.081 4.224-.127 6.349-.127 74.52 0 138.46 50.22 157.49 120.16 21.304 4.704 40.867 15.374 56.667 31.17 1.403 1.403 2.764 2.836 4.085 4.297 11.549-11.575 18.697-27.541 18.697-45.18 0-35.34-28.649-63.981-63.984-63.981"/></svg>