<svg viewBox="0 0 436.127 436.127"><path d="m350.36 202.08c-7.813-66.13-64.06-117.43-132.3-117.43s-124.48 51.3-132.29 117.43c-47.37 0-85.77 38.4-85.77 85.76 0 47.37 38.4 85.76 85.76 85.76h264.6c47.37 0 85.76-38.4 85.76-85.76 0-47.37-38.4-85.76-85.77-85.76"/><path d="m361.11 137.52c-.127.306-.262.606-.393.909 6.319 11.334 11.339 23.521 14.836 36.38 13.621 3.01 26.523 8.465 38.19 16.13 6.952-6.838 12.688-15.14 16.656-24.717 15.851-38.27-2.321-82.14-40.59-97.99-12.625-5.23-25.857-6.735-38.495-5.058 15.743 20.559 20.416 48.706 9.794 74.35"/></svg>