<svg viewBox="0 0 600 700">
  <defs><style>.cls-1{fill:none;stroke:white;stroke-linecap:round;stroke-miterlimit:10;stroke-width:7px;}.cls-2{fill:white;}</style></defs>
  <path class="cls-1" d="M306.1,606.71a43.06,43.06,0,0,0,74.86.52"/>
  <path class="cls-2" d="M328.17,581.7a19.84,19.84,0,0,0-16.38,8.7c-3.54,5.19-8,10.35-5.8,14.31a43.06,43.06,0,0,0,74.86.52c2-3.53-.13-8-2.46-12.63a19.78,19.78,0,0,0-17.67-10.9H328.17Z"/>
  <path class="cls-2" d="M310.35,569.51l0.83-4.81,74-90s11,21.81-5,48.4c-10.86,18.06-6.51,45.53-2.6,61.3a0.51,0.51,0,0,1-.86.47,21.06,21.06,0,0,0-14.87-6.16H327A21,21,0,0,0,309.7,588c-1.1,1.62-2.29,3.24-3.37,4.82a0.51,0.51,0,0,1-.92-0.4Z"/>
  <polygon class="cls-2" points="333.49 398.32 266.42 398.32 250.77 423.11 250.77 429.24 349.13 429.24 349.13 423.11 333.49 398.32"/>
  <path class="cls-2" d="M170.72,441.71l13.15,9.22a17.48,17.48,0,0,1,7.35,12.54h0a17.48,17.48,0,0,1-1.94,9.95l-22.36,42.25a2.84,2.84,0,0,1-5.07-.11c-3.07-6.33-9.92-14.54-23.2-5.75-7.61,5-13.53,13.38-17.28,19.81a2.18,2.18,0,0,1-4.06-1.23l1.51-27.31A38.91,38.91,0,0,1,121,490.23c4.39-12.41,15.86-42,27-47.48l5-2.43A17.48,17.48,0,0,1,170.72,441.71Z"/>
  <path class="cls-2" d="M229.73,365.81L167.17,411a27.54,27.54,0,0,0-5.65,5.47L151,430.16a6.18,6.18,0,0,0,1.18,8.72l2.85-1.4a17.48,17.48,0,0,1,17.73,1.38l13.15,9.22a17.42,17.42,0,0,1,7,18.16,6.16,6.16,0,0,0,4.34-3l11.56-19.67q0.4-.68.76-1.39l29.21-57.11Z"/>
  <path class="cls-2" d="M161.65,517.33c-3.51-5.77-10.23-11.3-22-3.53-7.26,4.8-13,12.61-16.74,18.89l-1.32,8.81a24.61,24.61,0,0,0,3.92,17.38l10.72,16a23.25,23.25,0,0,0,10.49,8.55l1.47,0.6a8.91,8.91,0,0,0,12.14-6.16,4.81,4.81,0,0,0-2.82-5.78c-8-4-10.67-20.67-10.67-20.67s3.33-16.67,11.33.67,10,0,10,0V538.76a22.33,22.33,0,0,0-1.43-7.86Z"/>
  <path class="cls-1" d="M293.53,606.71a43.06,43.06,0,0,1-74.86.52"/>
  <path class="cls-2" d="M271.46,581.7a19.84,19.84,0,0,1,16.38,8.7c3.54,5.19,8,10.35,5.8,14.31a43.06,43.06,0,0,1-74.86.52c-2-3.53.13-8,2.46-12.63a19.78,19.78,0,0,1,17.67-10.9h32.55Z"/>
  <path class="cls-2" d="M253.69,351.8a20.14,20.14,0,1,0-12.1,38.08Z"/>
  <path class="cls-2" d="M429.28,441.71l-13.15,9.22a17.48,17.48,0,0,0-7.35,12.54h0a17.48,17.48,0,0,0,1.94,9.95l22.36,42.25a2.84,2.84,0,0,0,5.07-.11c3.07-6.33,9.92-14.54,23.2-5.75,7.61,5,13.53,13.38,17.28,19.81a2.18,2.18,0,0,0,4.06-1.23l-1.51-27.31A38.91,38.91,0,0,0,479,490.23c-4.39-12.41-15.86-42-27-47.48l-5-2.43A17.48,17.48,0,0,0,429.28,441.71Z"/>
  <path class="cls-2" d="M370.27,365.81L432.83,411a27.54,27.54,0,0,1,5.65,5.47L449,430.16a6.18,6.18,0,0,1-1.18,8.72l-2.85-1.4a17.48,17.48,0,0,0-17.73,1.38l-13.15,9.22a17.42,17.42,0,0,0-7,18.16,6.16,6.16,0,0,1-4.34-3l-11.56-19.67q-0.4-.68-0.76-1.39l-29.21-57.11Z"/>
  <path class="cls-2" d="M439.35,517.33c3.51-5.77,10.23-11.3,22-3.53,7.26,4.8,13,12.61,16.74,18.89l1.32,8.81a24.61,24.61,0,0,1-3.92,17.38l-10.72,16a23.25,23.25,0,0,1-10.49,8.55l-1.47.6a8.91,8.91,0,0,1-12.14-6.16,4.81,4.81,0,0,1,2.82-5.78c8-4,10.67-20.67,10.67-20.67s-3.33-16.67-11.33.67-10,0-10,0V538.76a22.33,22.33,0,0,1,1.43-7.86Z"/>
  <path class="cls-2" d="M346.31,351.8a20.14,20.14,0,1,1,12.1,38.08Z"/>
  <path class="cls-2" d="M300,218.33A296.18,296.18,0,0,1,436,251.46a141.45,141.45,0,1,0-272.15,0A296.18,296.18,0,0,1,300,218.33Z"/>
  <path class="cls-2" d="M300,220.42a294.07,294.07,0,0,0-135.47,33.08,141.49,141.49,0,0,0,270.94,0A294.08,294.08,0,0,0,300,220.42Zm-92.2,46.29L191.94,244a293.55,293.55,0,0,1,31.42-10.39Zm186-.25-15.36-32.63a293.43,293.43,0,0,1,30.83,10.39Z"/>
  <path class="cls-2" d="M343.27,349.89q-2.47.79-5,1.5v25.24a7.09,7.09,0,0,1-7.08,7.08H268.7a7.09,7.09,0,0,1-7.08-7.08V351.39q-2.51-.71-5-1.5l-22.57,69.23a13.41,13.41,0,0,0,5.65,15.53l25.21-39.95H335l25.21,39.95a13.41,13.41,0,0,0,5.65-15.53Z"/>
  <path class="cls-2" d="M300,356.65a141.62,141.62,0,0,1-36.33-4.72v24.69a5.08,5.08,0,0,0,5.08,5.08h62.51a5.08,5.08,0,0,0,5.08-5.08V351.94A141.62,141.62,0,0,1,300,356.65Z"/>
  <path class="cls-2" d="M379.94,468l-25.72-33.38a4.2,4.2,0,0,0-3.33-1.64H249a4.2,4.2,0,0,0-3.33,1.64L220,468a6.21,6.21,0,0,0,.12,7.73l55.09,67.23c13.63,16.63,35.93,16.63,49.55,0l55.09-67.23A6.21,6.21,0,0,0,379.94,468ZM311.7,446H288.2c-1.52,0-4.75-1.23-4.75-2.75s3.23-2.75,4.75-2.75h23.5c1.52,0,4.75,1.23,4.75,2.75S313.22,446,311.7,446Z"/>
  <path class="cls-2" d="M289.28,569.51l-0.83-4.81-74-90s-11,21.81,5,48.4c10.86,18.06,6.51,45.53,2.6,61.3a0.51,0.51,0,0,0,.86.47,21.06,21.06,0,0,1,14.87-6.16h34.8A21,21,0,0,1,289.93,588c1.1,1.62,2.29,3.24,3.37,4.82a0.51,0.51,0,0,0,.92-0.4Z"/>
</svg>