<svg viewBox="0 0 30 30"><path d="M7.3,12.8h6.7c0.4,0,0.8-0.3,0.8-0.8s-0.3-0.8-0.8-0.8H7.3c-0.4,0-0.8,0.3-0.8,0.8S6.9,12.8,7.3,12.8z   M5.6,15.2h10.1c0.4,0,0.8-0.3,0.8-0.8s-0.3-0.8-0.8-0.8H5.6c-0.4,0-0.8,0.3-0.8,0.8S5.2,15.2,5.6,15.2z M15.8,18.3H5.6  c-0.4,0-0.8,0.3-0.8,0.8s0.3,0.8,0.8,0.8h10.1c0.4,0,0.8-0.3,0.8-0.8S16.2,18.3,15.8,18.3z M14.1,20.6H7.3c-0.4,0-0.8,0.3-0.8,0.8  s0.3,0.8,0.8,0.8h6.7c0.4,0,0.8-0.3,0.8-0.8S14.5,20.6,14.1,20.6z M28,7.4h-2.5c0,0,0,0,0,0L16,4.1c-0.4-0.1-0.8,0.1-1,0.5  c-0.1,0.4,0.1,0.8,0.5,1l5.4,1.8H2c-1,0-1.8,0.8-1.8,1.8v14.8c0,1,0.8,1.8,1.8,1.8h26c1,0,1.8-0.8,1.8-1.8V9.2  C29.9,8.2,29,7.4,28,7.4z M28.4,24.1c0,0.2-0.2,0.3-0.3,0.3H2c-0.2,0-0.3-0.2-0.3-0.3V9.2C1.6,9,1.8,8.9,2,8.9h26  c0.2,0,0.3,0.2,0.3,0.3V24.1z M23.4,10.7c-1.5,0-2.8,1.2-2.8,2.8c0,1.5,1.2,2.8,2.8,2.8c1.5,0,2.8-1.2,2.8-2.8  C26.2,11.9,24.9,10.7,23.4,10.7z M23.4,14.7c-0.7,0-1.3-0.6-1.3-1.3c0-0.7,0.6-1.3,1.3-1.3c0.7,0,1.3,0.6,1.3,1.3  C24.7,14.2,24.1,14.7,23.4,14.7z M16.9,16H4.5c-0.4,0-0.8,0.3-0.8,0.8s0.3,0.8,0.8,0.8h12.4c0.4,0,0.8-0.3,0.8-0.8S17.3,16,16.9,16z" /></svg>