<svg viewBox="0 0 467.126 467.126"><path d="m262.66 340.33h30v56.791h-30z"/><path d="m86.26 340.33h30v36.791h-30z"/><path d="m86.26 407.13h30v60h-30z"/><path d="m174.46 340.33h30v126.79h-30z"/><path d="m262.66 427.13h30v40h-30z"/><path d="m350.86 340.33h30v126.79h-30z"/><path d="m365.86 139.56c-7.814-66.13-64.06-117.43-132.3-117.43s-124.48 51.3-132.3 117.43c-47.37 0-85.77 38.4-85.77 85.76s38.4 85.76 85.76 85.76h264.6c47.37 0 85.76-38.4 85.76-85.76s-38.4-85.76-85.77-85.76"/><path d="m376.61 75c-.127.306-.262.605-.393.909 6.319 11.334 11.339 23.521 14.836 36.38 13.621 3.01 26.523 8.465 38.19 16.13 6.952-6.838 12.688-15.14 16.656-24.717 15.851-38.27-2.321-82.14-40.59-97.99-12.625-5.23-25.857-6.735-38.495-5.058 15.743 20.559 20.416 48.706 9.794 74.35"/></svg>