<svg viewBox="0 0 485.25 485.25"><path d="m257.37 358.46h30v56.791h-30z"/><path d="m80.971 358.46h30v36.791h-30z"/><path d="m80.971 425.25h30v60h-30z"/><path d="m169.17 358.46h30v126.79h-30z"/><path d="m257.37 445.25h30v40h-30z"/><path d="m345.57 358.46h30v126.79h-30z"/><path d="m360.57 157.68c-7.813-66.13-64.06-117.43-132.3-117.43s-124.48 51.3-132.29 117.43c-47.37 0-85.77 38.4-85.77 85.76s38.4 85.01 85.76 85.01h264.6c47.37 0 85.76-37.649 85.76-85.01s-38.4-85.76-85.77-85.76"/><path d="m442.55 107.87c-2.332-14.1-7.889-27.12-15.892-38.28l23-23-21.21-21.21-23 23c-11.157-8-24.18-13.559-38.28-15.892v-32.49h-30v32.529c-6.31 1.056-12.493 2.745-18.433 5.072 32.21 21.457 56.49 54.11 67.02 92.81 19.05 4.206 36.695 13.194 51.51 26.34 2.413-6.074 4.185-12.402 5.259-18.882h32.51v-30h-32.49"/></svg>