<svg viewBox="0 0 455 455"><path d="m424.15 290.67l-7.77-28.98-68.07 18.24-90.81-52.43 90.81-52.43 68.07 18.24 7.77-28.98-39.1-10.48 46.96-27.11-15-25.98-46.96 27.11 10.48-39.1-28.98-7.76-18.24 68.08-90.81 52.43v-104.86l49.84-49.843-21.22-21.21-28.62 28.626v-54.23h-30v54.23l-28.62-28.626-21.22 21.21 49.84 49.843v104.86l-90.81-52.43-18.24-68.08-28.98 7.76 10.48 39.1-46.96-27.11-15 25.98 46.963 27.11-39.1 10.48 7.764 28.98 68.07-18.24 90.81 52.43-90.81 52.43-68.07-18.24-7.764 28.98 39.1 10.47-46.963 27.12 15 25.98 46.96-27.11-10.48 39.1 28.98 7.76 18.24-68.08 90.81-52.43v104.86l-49.84 49.84 21.22 21.22 28.62-28.63v54.23h30v-54.23l28.62 28.63 21.22-21.22-49.84-49.84v-104.86l90.81 52.43 18.24 68.08 28.98-7.76-10.48-39.1 46.96 27.11 15-25.98-46.96-27.12z"/></svg>