<svg viewBox="0 0 455 455"><path d="m455 242.5v-30h-59.17c-3.124-35.35-17.17-67.61-38.75-93.36l41.896-41.896-21.21-21.21-41.896 41.896c-25.757-21.576-58.01-35.625-93.36-38.75v-59.17h-30v59.17c-35.35 3.124-67.61 17.17-93.36 38.75l-41.896-41.896-21.21 21.21 41.896 41.896c-21.576 25.757-35.625 58.01-38.75 93.36h-59.17v30h59.17c3.124 35.35 17.17 67.61 38.75 93.36l-41.896 41.896 21.21 21.21 41.896-41.896c25.757 21.576 58.01 35.625 93.36 38.75v59.17h30v-59.17c35.35-3.124 67.61-17.17 93.36-38.75l41.896 41.896 21.21-21.21-41.896-41.896c21.576-25.757 35.625-58.01 38.75-93.36h59.17"/></svg>