<svg viewBox="0 0 582.675 582.675"><path d="m518.29 545.7l-85.43-155.55c24.23-3.825 42.07-25.5 42.07-49.726v-229.5c0-61.2-49.725-110.92-110.93-110.92h-145.35c-61.2 0-112.2 49.725-112.2 112.2v228.23c0 25.5 17.85 45.9 42.08 49.726l-84.15 155.55c-6.375 12.75-2.55 28.05 10.2 34.425 3.825 2.55 7.65 2.55 11.475 2.55 8.925 0 17.85-5.1 21.675-12.75l7.65-12.75h351.9l7.649 12.75c5.101 8.925 12.75 12.75 21.676 12.75 3.824 0 7.649-1.274 11.475-2.55 12.75-6.375 16.576-21.675 10.201-34.425m-119.85-114.75h-214.2l21.675-39.525h170.85l21.675 39.525m-3.824-85.43c-20.4 0-36.976-16.575-36.976-36.976 0-20.4 16.575-36.975 36.976-36.975 20.399 0 36.975 16.575 36.975 36.975-.001 19.13-16.576 36.976-36.975 36.976m-243.53-219.3c0-39.525 31.875-71.4 70.13-71.4h138.98c38.25 0 71.4 31.875 71.4 71.4v61.2c0 14.03-11.475 24.22-25.5 24.22h-229.5c-14.03 0-24.22-11.475-24.22-24.22l-1.275-61.2m36.975 144.08c20.4 0 36.975 16.575 36.975 36.976 0 20.399-16.575 36.975-36.975 36.975s-36.975-16.575-36.975-36.975c0-20.401 16.576-36.976 36.975-36.976m-52.27 248.62l28.05-49.725h255l28.05 49.725h-311.1"/></svg>