<svg viewBox="0 0 56.67 56.67"><path d="m53.17 23.673h-4.01c-2.128-9.548-10.644-16.687-20.832-16.687s-18.705 7.139-20.831 16.687h-4.01c-1.931 0-3.497 1.564-3.497 3.495v2.332c0 1.931 1.566 3.495 3.497 3.495h4.01c2.126 9.55 10.644 16.688 20.831 16.688 10.188 0 18.704-7.139 20.832-16.688h4.01c1.934 0 3.496-1.564 3.496-3.495v-2.332c0-1.929-1.564-3.495-3.496-3.495m-24.839-10.898c6.956 0 12.859 4.588 14.845 10.896h-29.688c1.983-6.308 7.888-10.896 14.843-10.896m0 31.12c-6.955 0-12.86-4.59-14.844-10.897h29.688c-1.985 6.307-7.888 10.897-14.844 10.897"/></svg>